<svg width="180" height="26" viewBox="0 0 180 26" fill="none" xmlns="http://www.w3.org/2000/svg">
<path d="M47.688 16.288C44.712 16.288 43.032 15.34 42.42 13.36L43.716 13.084C44.196 14.524 45.48 15.256 47.712 15.256C49.752 15.256 50.7 14.788 50.7 13.744C50.7 12.856 50.076 12.448 48.516 12.304L45.768 12.052C43.812 11.872 42.9 11.128 42.9 9.724C42.9 8.116 44.424 7.192 47.136 7.192C49.8 7.192 51.312 8.068 51.96 9.772L50.712 10.132C50.22 8.884 49.152 8.212 47.1 8.212C45.228 8.212 44.208 8.716 44.208 9.652C44.208 10.504 44.736 10.828 46.284 10.984L48.912 11.248C51.072 11.476 52.008 12.16 52.008 13.624C52.008 15.352 50.556 16.288 47.688 16.288ZM64.1515 16V12.94L59.6875 7.48H61.2595L64.5715 11.572C64.6795 11.716 64.7635 11.836 64.7995 11.98H64.8235C64.8595 11.836 64.9195 11.716 65.0395 11.572L68.4115 7.48H69.9715L65.4235 12.94V16H64.1515ZM79.0372 16V7.48H80.9812L84.4012 14.116C84.5092 14.344 84.6052 14.584 84.6652 14.776H84.7012C84.7612 14.584 84.8692 14.344 84.9772 14.116L88.4452 7.48H90.4132V16H89.2492V9.256C89.2492 8.968 89.2612 8.596 89.2732 8.428H89.2252C89.1772 8.548 89.0212 8.896 88.8772 9.184L85.2772 16H84.0532L80.5012 9.172C80.3812 8.932 80.2852 8.644 80.2132 8.428H80.1532C80.1772 8.572 80.1892 8.86 80.1892 9.256V16H79.0372ZM100.873 16V7.48H102.817L106.237 14.116C106.345 14.344 106.441 14.584 106.501 14.776H106.537C106.597 14.584 106.705 14.344 106.813 14.116L110.281 7.48H112.249V16H111.085V9.256C111.085 8.968 111.097 8.596 111.109 8.428H111.061C111.013 8.548 110.857 8.896 110.713 9.184L107.113 16H105.889L102.337 9.172C102.217 8.932 102.121 8.644 102.049 8.428H101.989C102.013 8.572 102.025 8.86 102.025 9.256V16H100.873ZM123.97 14.968H130.87V16H122.71V7.48H130.786V8.512H123.97V11.128H130.582V12.148H123.97V14.968ZM149.082 7.48V8.536H145.062V16H143.79V8.536H139.758V7.48H149.082ZM165.689 16L163.265 12.568H159.533V16H158.273V7.48H163.817C166.193 7.48 166.865 8.848 166.865 10C166.865 10.936 166.325 12.088 164.681 12.412L167.213 16H165.689ZM159.533 8.512V11.548H163.589C165.101 11.548 165.557 10.732 165.557 9.988C165.557 9.28 165.113 8.512 163.601 8.512H159.533ZM178.123 16H176.863V7.48H178.123V16Z" fill="#1F1F1F"/>
<g clip-path="url(#clip0_94_1359)">
<path d="M23.0001 11.7233V6.49802L11.5001 0L6.94531 2.57708L23.0001 11.7233Z" fill="#0500E8"/>
<path d="M0 14.2529V19.494L11.5 26L16.0709 23.415L0 14.2529Z" fill="#0500E8"/>
<path d="M2.80232 4.91357L0 6.4946V9.55389L20.2138 21.0717L23 19.4907V16.4156L2.80232 4.91357Z" fill="#0500E8"/>
</g>
<defs>
<clipPath id="clip0_94_1359">
<rect width="23" height="26" fill="white"/>
</clipPath>
</defs>
</svg>
