<svg width="189" height="40" viewBox="0 0 189 40" fill="none" xmlns="http://www.w3.org/2000/svg">
<g clip-path="url(#clip0_94_370)">
<path d="M34.9995 18.0359V9.99696L17.4995 0L10.5684 3.96473L34.9995 18.0359Z" fill="white"/>
<path d="M0 21.9277V29.991L17.5 40.0001L24.4558 36.0232L0 21.9277Z" fill="white"/>
<path d="M4.2644 7.55908L0 9.99143V14.698L30.7602 32.4177L35 29.9854V25.2544L4.2644 7.55908Z" fill="white"/>
</g>
<path d="M56.688 24.288C59.556 24.288 61.008 23.352 61.008 21.624C61.008 20.16 60.072 19.476 57.912 19.248L55.284 18.984C53.736 18.828 53.208 18.504 53.208 17.652C53.208 16.716 54.228 16.212 56.1 16.212C58.152 16.212 59.22 16.884 59.712 18.132L60.96 17.772C60.312 16.068 58.8 15.192 56.136 15.192C53.424 15.192 51.9 16.116 51.9 17.724C51.9 19.128 52.812 19.872 54.768 20.052L57.516 20.304C59.076 20.448 59.7 20.856 59.7 21.744C59.7 22.788 58.752 23.256 56.712 23.256C54.48 23.256 53.196 22.524 52.716 21.084L51.42 21.36C52.032 23.34 53.712 24.288 56.688 24.288ZM73.1515 24H74.4235V20.94L78.9715 15.48H77.4115L74.0395 19.572C73.9195 19.716 73.8595 19.836 73.8235 19.98H73.7995C73.7635 19.836 73.6795 19.716 73.5715 19.572L70.2595 15.48H68.6875L73.1515 20.94V24ZM88.0372 24H89.1892V17.256C89.1892 16.86 89.1772 16.572 89.1532 16.428H89.2132C89.2852 16.644 89.3812 16.932 89.5012 17.172L93.0532 24H94.2772L97.8772 17.184C98.0212 16.896 98.1772 16.548 98.2252 16.428H98.2732C98.2612 16.596 98.2492 16.968 98.2492 17.256V24H99.4132V15.48H97.4452L93.9772 22.116C93.8692 22.344 93.7612 22.584 93.7012 22.776H93.6652C93.6052 22.584 93.5092 22.344 93.4012 22.116L89.9812 15.48H88.0372V24ZM109.873 24H111.025V17.256C111.025 16.86 111.013 16.572 110.989 16.428H111.049C111.121 16.644 111.217 16.932 111.337 17.172L114.889 24H116.113L119.713 17.184C119.857 16.896 120.013 16.548 120.061 16.428H120.109C120.097 16.596 120.085 16.968 120.085 17.256V24H121.249V15.48H119.281L115.813 22.116C115.705 22.344 115.597 22.584 115.537 22.776H115.501C115.441 22.584 115.345 22.344 115.237 22.116L111.817 15.48H109.873V24ZM132.97 22.968V20.148H139.582V19.128H132.97V16.512H139.786V15.48H131.71V24H139.87V22.968H132.97ZM158.082 15.48H148.758V16.536H152.79V24H154.062V16.536H158.082V15.48ZM174.689 24H176.213L173.681 20.412C175.325 20.088 175.865 18.936 175.865 18C175.865 16.848 175.193 15.48 172.817 15.48H167.273V24H168.533V20.568H172.265L174.689 24ZM168.533 16.512H172.601C174.113 16.512 174.557 17.28 174.557 17.988C174.557 18.732 174.101 19.548 172.589 19.548H168.533V16.512ZM187.123 24V15.48H185.863V24H187.123Z" fill="white"/>
<defs>
<clipPath id="clip0_94_370">
<rect width="35" height="40" fill="white"/>
</clipPath>
</defs>
</svg>
