<svg width="401" height="8" viewBox="0 0 401 8" fill="none" xmlns="http://www.w3.org/2000/svg">
<path d="M46.9581 4.00766C103.318 3.41458 174.514 2.62599 231.689 2.16359C259.411 1.93938 299.741 -0.28293 328.933 2.07577C333.993 2.48463 318.751 2.70066 313.635 2.77828C272.786 3.39799 231.863 3.20019 191.005 3.21734C130.724 3.24265 70.4422 3.21734 10.1609 3.21734C6.8257 3.21734 3.49052 3.21734 0.155332 3.21734C-0.616446 3.21734 1.69889 3.21734 2.47067 3.21734C36.3738 3.21734 70.2769 3.21734 104.18 3.21734C195.553 3.21734 286.926 3.21734 378.299 3.21734C387.579 3.21734 414.973 3.35812 389.297 4.79798C322.548 8.54103 253.753 6.37862 186.788 6.37862C147.124 6.37862 107.46 6.37862 67.7962 6.37862" stroke="#C6E743" stroke-width="2" stroke-linecap="round"/>
</svg>
